<svg width="19" height="20" viewBox="0 0 19 20" fill="none" xmlns="http://www.w3.org/2000/svg">
<path fill-rule="evenodd" clip-rule="evenodd" d="M17.5703 3.07253H1.16663C0.5235 3.07253 0 3.60159 0 4.25156V18.1141C0 18.764 0.5235 19.2931 1.16663 19.2931H17.5703C18.2137 19.2931 18.737 18.764 18.737 18.1141V4.25156C18.737 3.60159 18.2137 3.07253 17.5703 3.07253ZM17.6764 18.1141C17.6764 18.173 17.6287 18.2213 17.5703 18.2213H1.16663C1.1083 18.2213 1.06058 18.173 1.06058 18.1141V7.61006H17.6764V18.1141ZM17.6764 6.53822H1.06058V4.25156C1.06058 4.19261 1.1083 4.14437 1.16663 4.14437H17.5703C17.6287 4.14437 17.6764 4.19261 17.6764 4.25156V6.53822ZM14.9895 2.35805C15.2825 2.35805 15.5198 2.11817 15.5198 1.82213V0.53592C15.5198 0.239878 15.2825 0 14.9895 0C14.6966 0 14.4592 0.239878 14.4592 0.53592V1.82213C14.4592 2.11817 14.6966 2.35805 14.9895 2.35805ZM3.74744 2.35805C4.04037 2.35805 4.27772 2.11817 4.27772 1.82213V0.53592C4.27772 0.239878 4.04037 0 3.74744 0C3.45451 0 3.21715 0.239878 3.21715 0.53592V1.82213C3.21715 2.11817 3.45451 2.35805 3.74744 2.35805Z" fill="#BDC0C8"/>
<path fill-rule="evenodd" clip-rule="evenodd" d="M9.5 9L10.1125 9.6125L7.6625 12.0625H13V12.9375H7.6625L10.1125 15.3875L9.5 16L6 12.5L9.5 9Z" fill="#BDC0C8"/>
</svg>
