<svg width="323" height="200" viewBox="0 0 323 200" fill="none" xmlns="http://www.w3.org/2000/svg">
<path opacity="0.05" fill-rule="evenodd" clip-rule="evenodd" d="M266.011 -27.5861C266.014 -27.5753 266.018 -27.5592 266.011 -27.5225C268.423 -19.5772 257.364 -3.24504 257.364 -3.24504L195.485 49.3344L211.797 204.81L194.972 217.13L155.402 108.3L141.11 94.9062L68.1102 156.737L64.7276 219.74L61.3487 223.41L35.6467 171.073L29.6805 171.31L28.2388 171.356L28.5482 169.819L29.7522 163.998L-17.7187 130.142L-13.5509 127.393L49.1637 134.286L122.017 72.2743L111.117 55.9924L10.1217 -0.697358L25 -15.3066L175.788 25.9988L237.696 -26.5366C237.696 -26.5366 263.151 -38.2615 266.011 -27.5861Z" fill="white"/>
</svg>
