<svg width="32" height="32" viewBox="0 0 32 32" fill="none" xmlns="http://www.w3.org/2000/svg">
<path fill-rule="evenodd" clip-rule="evenodd" d="M30.08 7.68H29.44V4.48C29.44 3.424 28.6672 2.17344 27.7229 1.70144C27.7229 1.70144 24.32 0 16 0C7.68 0 4.27744 1.70144 4.27744 1.70144C3.3328 2.17344 2.56 3.424 2.56 4.48V7.68H1.92C0.864 7.68 0 8.544 0 9.6V11.52C0 12.576 0.864 13.44 1.92 13.44H2.56V26.56C2.56 27.3917 3.09664 28.1018 3.84 28.367V29.44C3.84 30.848 4.992 32 6.4 32C7.808 32 8.96 30.848 8.96 29.44V28.48H23.04V29.44C23.04 30.848 24.192 32 25.6 32C27.008 32 28.16 30.848 28.16 29.44V28.367C28.9034 28.1018 29.44 27.3914 29.44 26.56V13.44H30.08C31.136 13.44 32 12.576 32 11.52V9.6C32 8.544 31.136 7.68 30.08 7.68ZM9.6 3.2C9.6 2.848 9.888 2.56 10.24 2.56H21.76C22.112 2.56 22.4 2.848 22.4 3.2V4.48C22.4 4.832 22.112 5.12 21.76 5.12H10.24C9.888 5.12 9.6 4.832 9.6 4.48V3.2ZM6.72 25.92C5.83616 25.92 5.12 25.2032 5.12 24.32C5.12 23.4368 5.83616 22.72 6.72 22.72C7.60352 22.72 8.32 23.4368 8.32 24.32C8.32 25.2032 7.60352 25.92 6.72 25.92ZM25.28 25.92C24.3962 25.92 23.68 25.2032 23.68 24.32C23.68 23.4368 24.3962 22.72 25.28 22.72C26.1638 22.72 26.88 23.4368 26.88 24.32C26.88 25.2032 26.1638 25.92 25.28 25.92ZM26.88 18.56C26.88 18.912 26.592 19.2 26.24 19.2H5.76C5.408 19.2 5.12 18.912 5.12 18.56V8.32C5.12 7.968 5.408 7.68 5.76 7.68H26.24C26.592 7.68 26.88 7.968 26.88 8.32V18.56Z" fill="#FF5A5F"/>
</svg>
