<svg width="40" height="39" viewBox="0 0 40 39" fill="none" xmlns="http://www.w3.org/2000/svg">
<path fill-rule="evenodd" clip-rule="evenodd" d="M9.24861 10.4413C9.05947 10.4413 8.86984 10.3701 8.72565 10.2277L6.72071 8.25386C6.43083 7.96867 6.43034 7.50555 6.71923 7.21987C7.00762 6.93371 7.47725 6.93322 7.76663 7.21841L9.24812 8.6775L12.4298 5.54482C12.7192 5.25964 13.1884 5.26012 13.4773 5.54629C13.7661 5.83196 13.7656 6.29509 13.4758 6.58027L9.77108 10.2282C9.62688 10.3701 9.43775 10.4413 9.24861 10.4413Z" fill="#FF5A5F"/>
<path fill-rule="evenodd" clip-rule="evenodd" d="M9.24861 18.4889C9.05947 18.4889 8.86984 18.4178 8.72565 18.2754L6.72071 16.3015C6.43083 16.0163 6.43034 15.5532 6.71923 15.2675C7.00762 14.9814 7.47725 14.9809 7.76663 15.2661L9.24812 16.7252L12.4298 13.5925C12.7192 13.3068 13.1884 13.3078 13.4773 13.594C13.7661 13.8796 13.7656 14.3428 13.4758 14.6279L9.77108 18.2754C9.62688 18.4178 9.43775 18.4889 9.24861 18.4889Z" fill="#FF5A5F"/>
<path fill-rule="evenodd" clip-rule="evenodd" d="M32.8665 9.33176H17.6236C17.2142 9.33176 16.8828 9.00465 16.8828 8.60051C16.8828 8.19638 17.2142 7.86926 17.6236 7.86926H32.866C33.2749 7.86926 33.6068 8.19638 33.6068 8.60051C33.6068 9.00465 33.2754 9.33176 32.8665 9.33176Z" fill="#FF5A5F"/>
<path fill-rule="evenodd" clip-rule="evenodd" d="M32.8665 17.1994H17.6236C17.2142 17.1994 16.8828 16.8723 16.8828 16.4682C16.8828 16.0641 17.2142 15.7369 17.6236 15.7369H32.866C33.2749 15.7369 33.6068 16.0641 33.6068 16.4682C33.6068 16.8723 33.2754 17.1994 32.8665 17.1994Z" fill="#FF5A5F"/>
<path fill-rule="evenodd" clip-rule="evenodd" d="M9.24861 33.4225C9.05947 33.4225 8.86984 33.3513 8.72565 33.2089L6.72071 31.2351C6.43083 30.9499 6.43034 30.4867 6.71923 30.2006C7.00762 29.9139 7.47725 29.9134 7.76663 30.1991L9.24812 31.6582L12.4298 28.525C12.7192 28.2399 13.1884 28.2403 13.4773 28.5265C13.7661 28.8127 13.7656 29.2753 13.4758 29.561L9.77108 33.2085C9.62688 33.3513 9.43775 33.4225 9.24861 33.4225Z" fill="#FF5A5F"/>
<path fill-rule="evenodd" clip-rule="evenodd" d="M32.8665 32.1335H17.6236C17.2142 32.1335 16.8828 31.8059 16.8828 31.4023C16.8828 30.9986 17.2142 30.671 17.6236 30.671H32.866C33.2749 30.671 33.6068 30.9986 33.6068 31.4023C33.6068 31.8059 33.2754 32.1335 32.8665 32.1335Z" fill="#FF5A5F"/>
<path fill-rule="evenodd" clip-rule="evenodd" d="M32.8665 25.0672H17.6236C17.2142 25.0672 16.8828 24.7396 16.8828 24.336C16.8828 23.9323 17.2142 23.6047 17.6236 23.6047H32.866C33.2749 23.6047 33.6068 23.9323 33.6068 24.336C33.6068 24.7396 33.2754 25.0672 32.8665 25.0672Z" fill="#FF5A5F"/>
<path fill-rule="evenodd" clip-rule="evenodd" d="M39.1766 38.6294H1.15187C0.742491 38.6294 0.411133 38.3018 0.411133 37.8982V0.848193C0.411133 0.444056 0.742491 0.116943 1.15187 0.116943H39.1766C39.5855 0.116943 39.9173 0.444056 39.9173 0.848193V37.8982C39.9173 38.3018 39.5855 38.6294 39.1766 38.6294ZM1.89261 37.1669H38.4358V1.57944H1.89261V37.1669Z" fill="#FF5A5F"/>
</svg>
