<svg width="23" height="16" viewBox="0 0 23 16" fill="none" xmlns="http://www.w3.org/2000/svg">
<path fill-rule="evenodd" clip-rule="evenodd" d="M21.9685 0H0.757534C0.324658 0 0 0.360731 0 0.757534V15.0425C0 15.4753 0.360731 15.8 0.757534 15.8H21.9685C22.4014 15.8 22.726 15.4393 22.726 15.0425V0.757534C22.7621 0.324658 22.4014 0 21.9685 0ZM21.211 1.51507V4.00411L11.363 10.4251L1.51507 4.04018V1.55114H21.211V1.51507ZM1.51507 14.2849V5.84384L10.9301 11.9763C11.0744 12.0484 11.2187 12.0845 11.363 12.0845C11.5073 12.0845 11.6516 12.0484 11.7959 11.9763L21.211 5.84384V14.2489H1.51507V14.2849Z" fill="#888D99"/>
</svg>
