<svg width="19" height="20" viewBox="0 0 19 20" fill="none" xmlns="http://www.w3.org/2000/svg">
<path fill-rule="evenodd" clip-rule="evenodd" d="M17.6753 3.07253H1.27161C0.62848 3.07253 0.10498 3.60159 0.10498 4.25156V18.1141C0.10498 18.764 0.62848 19.2931 1.27161 19.2931H17.6753C18.3187 19.2931 18.8419 18.764 18.8419 18.1141V4.25156C18.8419 3.60159 18.3187 3.07253 17.6753 3.07253ZM17.7814 18.1141C17.7814 18.173 17.7336 18.2213 17.6753 18.2213H1.27161C1.21328 18.2213 1.16556 18.173 1.16556 18.1141V7.61006H17.7814V18.1141ZM17.7814 6.53822H1.16556V4.25156C1.16556 4.19261 1.21328 4.14437 1.27161 4.14437H17.6753C17.7336 4.14437 17.7814 4.19261 17.7814 4.25156V6.53822ZM15.0945 2.35805C15.3874 2.35805 15.6248 2.11817 15.6248 1.82213V0.53592C15.6248 0.239878 15.3874 0 15.0945 0C14.8016 0 14.5642 0.239878 14.5642 0.53592V1.82213C14.5642 2.11817 14.8016 2.35805 15.0945 2.35805ZM3.85242 2.35805C4.14535 2.35805 4.3827 2.11817 4.3827 1.82213V0.53592C4.3827 0.239878 4.14535 0 3.85242 0C3.55949 0 3.32213 0.239878 3.32213 0.53592V1.82213C3.32213 2.11817 3.55949 2.35805 3.85242 2.35805Z" fill="#BDC0C8"/>
<path fill-rule="evenodd" clip-rule="evenodd" d="M9.81348 9.31372L9.20098 9.92622L11.651 12.3762H6.31348V13.2512H11.651L9.20098 15.7012L9.81348 16.3137L13.3135 12.8137L9.81348 9.31372Z" fill="#BDC0C8"/>
</svg>
