<svg width="47" height="37" viewBox="0 0 47 37" fill="none" xmlns="http://www.w3.org/2000/svg">
<path fill-rule="evenodd" clip-rule="evenodd" d="M0.973677 37.0003C0.97173 37.0003 0.967835 37.0003 0.965888 37.0003C0.432313 36.9944 0 36.5602 0 36.0266C0 36.011 0 35.9935 0 35.9779C0.190841 25.1954 8.3931 10.3761 23.3683 9.75679V0.974224C23.3683 0.612016 23.5688 0.282913 23.8882 0.113493C24.2076 -0.0559267 24.5951 -0.0345058 24.8911 0.169966L46.312 14.7751C46.5768 14.9562 46.7365 15.2561 46.7365 15.5794C46.7365 15.9026 46.5768 16.2025 46.31 16.3836L24.8891 30.9888C24.5951 31.1933 24.2056 31.2166 23.8862 31.0453C23.5688 30.8759 23.3683 30.5448 23.3683 30.1845V21.4507C12.2917 22.0894 2.05641 33.3704 1.94735 35.9857C1.94735 36.0052 1.94735 36.0247 1.94735 36.0422C1.93762 36.5738 1.50336 37.0003 0.973677 37.0003ZM25.3156 2.81642V10.711C25.3156 11.2485 24.8794 11.6847 24.3419 11.6847C12.1379 11.6847 4.62107 21.9024 2.5374 31.2381C6.67164 26.1263 15.3101 19.4741 24.3419 19.4741C24.8794 19.4741 25.3156 19.9103 25.3156 20.4478V28.3423L44.0336 15.5794L25.3156 2.81642Z" fill="#FF5A5F"/>
</svg>
