<svg width="12" height="12" viewBox="0 0 12 12" fill="none" xmlns="http://www.w3.org/2000/svg">
<path fill-rule="evenodd" clip-rule="evenodd" d="M12 2.5H10.5V4H9.5V2.5H8V1.5H9.5V0H10.5V1.5H12V2.5ZM7.65 9.304C7.65 10.52 6.54 12 3.746 12C1.7035 12 0 11.119 0 9.637C0 8.493 0.724 7.0085 4.1075 7.0085C3.605 6.5985 3.4825 6.0265 3.789 5.406C1.808 5.406 0.794 4.241 0.794 2.762C0.7935 1.315 1.8685 0 4.0635 0H7.58L6.795 0.825H5.872C6.523 1.1975 6.869 1.966 6.869 2.8125C6.869 3.5895 6.4415 4.219 5.8305 4.6915C4.747 5.5295 5.0245 5.9975 6.1605 6.8265C7.2805 7.6655 7.6505 8.3125 7.6505 9.304H7.65ZM5.456 2.865C5.292 1.6215 4.481 0.6 3.5345 0.572C2.587 0.5435 1.9515 1.496 2.1145 2.7405C2.2785 3.9855 3.1795 4.8555 4.127 4.8835C5.074 4.9115 5.6195 4.1105 5.456 2.866V2.865ZM6.4325 9.429C6.4325 8.4055 5.499 7.429 3.9325 7.429C2.5205 7.414 1.324 8.322 1.324 9.374C1.324 10.4475 2.344 11.3415 3.755 11.3415C5.56 11.3415 6.432 10.5025 6.432 9.429H6.4325Z" fill="#BDC0C8"/>
</svg>
