<svg width="24" height="24" viewBox="0 0 24 24" fill="none" xmlns="http://www.w3.org/2000/svg">
<path fill-rule="evenodd" clip-rule="evenodd" d="M12.0002 15.323C11.4925 15.323 11.0771 14.9076 11.0771 14.4V13.0615C11.0771 12.5538 11.4925 12.1384 12.0002 12.1384C13.0155 12.1384 13.8002 11.3076 13.8002 10.3384C13.8002 9.32303 12.9694 8.53841 12.0002 8.53841C10.9848 8.53841 10.2002 9.36918 10.2002 10.3384C10.2002 10.8461 9.78477 11.2615 9.27708 11.2615C8.76939 11.2615 8.354 10.8461 8.354 10.3384C8.354 8.30765 10.0155 6.69226 12.0002 6.69226C14.0309 6.69226 15.6463 8.3538 15.6463 10.3384C15.6463 12.0461 14.4925 13.4769 12.9232 13.8923V14.4C12.9232 14.9076 12.5079 15.323 12.0002 15.323Z" fill="#888D99"/>
<path fill-rule="evenodd" clip-rule="evenodd" d="M12.0002 17.8616C11.7695 17.8616 11.5387 17.7693 11.3541 17.5847C11.1695 17.4 11.0771 17.1693 11.0771 16.9385C11.0771 16.7077 11.1695 16.477 11.3541 16.2924C11.6771 15.9693 12.3233 15.9693 12.6464 16.2924C12.831 16.477 12.9233 16.7077 12.9233 16.9385C12.9233 17.1693 12.831 17.4 12.6464 17.5847C12.4618 17.7693 12.231 17.8616 12.0002 17.8616Z" fill="#888D99"/>
<path fill-rule="evenodd" clip-rule="evenodd" d="M12.0002 23.8615C5.44636 23.8615 0.138672 18.5538 0.138672 12C0.138672 5.44612 5.44636 0.138428 12.0002 0.138428C18.5541 0.138428 23.8617 5.44612 23.8617 12C23.8617 18.5538 18.5541 23.8615 12.0002 23.8615ZM12.0002 1.98458C6.46175 1.98458 1.98483 6.4615 1.98483 12C1.98483 17.5384 6.5079 22.0154 12.0002 22.0154C17.5387 22.0154 22.0156 17.4923 22.0156 12C22.0156 6.4615 17.5387 1.98458 12.0002 1.98458Z" fill="#888D99"/>
</svg>
