<svg width="22" height="20" viewBox="0 0 22 20" fill="none" xmlns="http://www.w3.org/2000/svg">
<path fill-rule="evenodd" clip-rule="evenodd" d="M21.8224 9.27454L11.2635 0.119825C11.1004 -0.0475431 10.7909 -0.0380695 10.6404 0.138772L0.143536 9.27559C-0.0301481 9.42823 -0.0490954 9.69033 0.102483 9.86401C0.254062 10.0377 0.517219 10.0566 0.68985 9.90612L2.36248 8.44612V19.584C2.36248 19.8145 2.54879 20.0008 2.77932 20.0008H8.23615C8.46562 20.0008 8.65194 19.8135 8.65194 19.584V14.0535H13.2793V19.584C13.2793 19.8145 13.4677 20.0008 13.6972 20.0008H19.1519C19.3845 20.0008 19.5688 19.8135 19.5688 19.584V8.44191L21.2751 9.90401C21.354 9.97243 21.4519 10.0051 21.5488 10.0051C21.6656 10.0051 21.7824 9.95665 21.8635 9.86296C22.0151 9.68928 21.9961 9.42612 21.8224 9.27454ZM18.7372 7.88612V19.1672H14.1119V13.6345C14.1119 13.4051 13.9267 13.2166 13.6972 13.2166H8.2372C8.00562 13.2166 7.81931 13.4061 7.81931 13.6345V19.1672H3.19721V7.88612C3.19721 7.83665 3.18458 7.78823 3.16879 7.74507L10.9635 0.964034L18.7635 7.74402C18.7467 7.78823 18.7372 7.8356 18.7372 7.88612Z" fill="#FF5A5F"/>
</svg>
