<svg width="26" height="18" viewBox="0 0 26 18" fill="none" xmlns="http://www.w3.org/2000/svg">
<path fill-rule="evenodd" clip-rule="evenodd" d="M24.0976 18H1.90244C0.82439 18 0 17.2451 0 16.258V4.64513C0 3.65804 0.82439 2.9032 1.90244 2.9032H24.0976C25.1756 2.9032 26 3.65804 26 4.64513V16.258C26 17.2451 25.1756 18 24.0976 18ZM1.90244 4.06449C1.52195 4.06449 1.26829 4.29675 1.26829 4.64513V16.258C1.26829 16.6064 1.52195 16.8387 1.90244 16.8387H24.0976C24.478 16.8387 24.7317 16.6064 24.7317 16.258V4.64513C24.7317 4.29675 24.478 4.06449 24.0976 4.06449H1.90244Z" fill="#888D99"/>
<rect x="17.7559" y="3.48389" width="1.26829" height="13.9355" fill="#888D99"/>
<rect x="6.34131" y="3.48389" width="1.26829" height="13.9355" fill="#888D99"/>
<path fill-rule="evenodd" clip-rule="evenodd" d="M15.917 3.71613L14.9024 1.33548C14.839 1.21935 14.7121 1.16129 14.5853 1.16129H11.4146C11.2877 1.16129 11.2243 1.21935 11.1609 1.33548L10.1463 3.71613L8.94141 3.30968L9.95604 0.929032C10.2097 0.348387 10.7804 0 11.4146 0H14.5853C15.2195 0 15.7902 0.348387 16.0438 0.870968L17.0585 3.25161L15.917 3.71613Z" fill="#888D99"/>
</svg>
