<svg width="39" height="29" viewBox="0 0 39 29" fill="none" xmlns="http://www.w3.org/2000/svg">
<path fill-rule="evenodd" clip-rule="evenodd" d="M5.61643 10.0369C5.61643 10.8712 4.93523 11.7639 4.05167 11.7639V25.8439C4.05167 27.8434 1.60897 27.8434 1.60897 25.8439V11.7639C0.7488 11.7639 0 11.0249 0 9.91757V2.16877C0 1.49403 0.874033 1.46842 0.874033 2.19487V7.92333H1.60593V2.14315C1.60593 1.52352 2.44703 1.48388 2.44703 2.16925V7.92333H3.20277V2.14992C3.20277 1.50225 4.02003 1.47615 4.02003 2.17602V7.92333H4.76363V2.14992C4.76363 1.5095 5.61687 1.4834 5.61687 2.17602L5.61643 10.0369Z" fill="#FF5A5F"/>
<path fill-rule="evenodd" clip-rule="evenodd" d="M39 3.96959V25.837C39 27.7921 36.553 27.7626 36.553 25.837V17.1607H35.2495V3.96959C35.2495 0.899459 39 0.899459 39 3.96959Z" fill="#FF5A5F"/>
<path fill-rule="evenodd" clip-rule="evenodd" d="M20.1872 0.263428C13.1382 0.263428 7.42383 6.63763 7.42383 14.5C7.42383 22.3624 13.1386 28.7366 20.1872 28.7366C27.2371 28.7366 32.9511 22.3624 32.9511 14.5C32.9511 6.63763 27.2367 0.263428 20.1872 0.263428ZM20.1872 26.1305C14.4382 26.1305 9.76079 20.9129 9.76079 14.5C9.76079 8.08666 14.4382 2.86956 20.1872 2.86956C25.9371 2.86956 30.6145 8.08666 30.6145 14.5C30.6141 20.9129 25.9367 26.1305 20.1872 26.1305Z" fill="#FF5A5F"/>
</svg>
