<svg width="35" height="30" viewBox="0 0 35 30" fill="none" xmlns="http://www.w3.org/2000/svg">
<path fill-rule="evenodd" clip-rule="evenodd" d="M9.62146 5.32456C10.7186 5.43646 11.7668 4.04956 11.9198 2.6124C12.0732 1.17402 11.275 0.228213 10.1779 0.115105C9.07994 0.00321347 8.03299 1.39051 7.87792 2.82767C7.72616 4.26646 8.5235 5.21186 9.62146 5.32456Z" fill="#FF5A5F"/>
<path fill-rule="evenodd" clip-rule="evenodd" d="M10.7807 23.7519C11.1792 24.8676 11.6133 27.1075 11.814 28.7315C12.0172 30.3706 14.0344 30.1695 13.9129 28.5207C13.8254 27.3426 13.667 23.9153 12.664 21.0596C11.6175 18.0799 10.2521 15.8299 10.2521 15.8299C10.6509 13.965 11.4545 10.2965 11.4545 10.2965C11.4545 10.2965 12.8506 13.3533 16.0317 15.0783C17.8274 16.0071 18.6737 14.6031 17.6491 13.7315C13.1226 11.0786 13.5161 6.89842 11.1771 6.58626C9.42529 6.35274 7.25716 5.47828 6.3657 5.52977C1.84494 5.79004 0.371749 11.2063 0.30209 13.8621C0.258139 15.5202 1.99297 15.6888 2.28363 14.0117C2.65887 11.8444 3.40065 9.26639 5.15414 8.62585C4.73826 10.8572 3.48233 14.7175 3.48233 14.7175C2.96404 17.9502 5.1898 18.3933 5.01731 21.6329C4.94516 22.9938 3.84224 25.5029 3.02955 26.6822C2.07838 28.0614 3.73111 29.1414 4.83446 27.8429C5.81465 26.6891 6.83465 25.1113 7.52792 23.2083C8.36299 20.9173 7.78624 18.3831 7.78624 18.3831C9.22999 19.9663 10.0535 21.718 10.7807 23.7519Z" fill="#FF5A5F"/>
<path fill-rule="evenodd" clip-rule="evenodd" d="M25.4151 5.50019C24.3006 5.51114 23.3809 4.01843 23.3664 2.55776C23.3519 1.09668 24.2462 0.218569 25.3612 0.207218C26.477 0.195866 27.3958 1.68897 27.412 3.14965C27.4248 4.61154 26.5313 5.48884 25.4151 5.50019Z" fill="#FF5A5F"/>
<path fill-rule="evenodd" clip-rule="evenodd" d="M22.4604 23.9331C21.9508 25.0187 21.2965 27.2326 20.9366 28.8474C20.5734 30.4775 18.5628 30.0883 18.846 28.4408C19.0479 27.2635 19.5405 23.8297 20.8267 21.0494C22.1689 18.1491 23.7611 16.011 23.7611 16.011C23.5409 14.0979 22.4372 8.95292 22.4372 8.95292C22.4372 8.95292 18.5276 8.07603 16.6841 3.11549C15.983 1.22873 17.5374 0.595485 18.2875 1.71967C19.2267 3.12603 19.8204 5.07116 21.9898 6.04292C23.6831 6.80143 28.0007 6.39319 28.8926 6.52778C33.4154 7.20967 33.8516 12.6551 33.6646 15.3336C33.5481 17.0063 31.7859 17.0144 31.6561 15.3004C31.489 13.0848 31.3186 10.3986 29.6161 9.59143C29.8181 11.8751 30.6801 15.5209 30.6801 15.5209C30.8878 18.8213 28.6053 19.0609 28.4643 22.3362C28.4046 23.7129 29.2708 26.3387 29.9744 27.6008C30.797 29.0768 29.0294 29.7733 28.0459 28.6017C27.0624 27.4301 26.2987 25.6674 25.7858 23.6886C25.1679 21.306 25.9943 18.8095 25.9943 18.8095C24.3876 20.2678 23.3892 21.9543 22.4604 23.9331Z" fill="#FF5A5F"/>
</svg>
