<svg width="15" height="17" viewBox="0 0 15 17" fill="none" xmlns="http://www.w3.org/2000/svg">
<path fill-rule="evenodd" clip-rule="evenodd" d="M7.50005 7.93932C9.90137 7.93932 11.8487 6.16775 11.8487 3.99652C11.8487 1.82529 9.89479 0.0537109 7.50005 0.0537109C5.10531 0.0537109 3.15137 1.82529 3.15137 3.99652C3.15137 6.16775 5.10531 7.93932 7.50005 7.93932ZM7.50005 0.948448C9.35531 0.948448 10.8619 2.31441 10.8619 3.99652C10.8619 5.67862 9.35531 7.04459 7.50005 7.04459C5.64479 7.04459 4.13821 5.67862 4.13821 3.99652C4.13821 2.31441 5.64479 0.948448 7.50005 0.948448Z" fill="#BDC0C8"/>
<path fill-rule="evenodd" clip-rule="evenodd" d="M14.8223 13.6418C14.2566 12.1565 13.2829 10.886 12.0066 9.96742C10.6842 9.019 9.13156 8.51794 7.50656 8.51794C5.88156 8.51794 4.32892 9.019 3.00656 9.96742C1.72366 10.886 0.749976 12.1565 0.190766 13.6418C-0.118445 14.459 0.0197129 15.3597 0.565766 16.0516C1.03945 16.6481 1.7434 16.9941 2.50656 16.9941H12.5197C13.2829 16.9941 13.9868 16.6481 14.4605 16.0516C14.9934 15.3597 15.1316 14.459 14.8223 13.6418ZM13.6447 15.5267C13.3618 15.8846 12.9473 16.0934 12.5066 16.0934H2.4934C2.05261 16.0934 1.64471 15.8846 1.35524 15.5267C0.999976 15.0734 0.907871 14.4769 1.11182 13.9281C1.61182 12.6039 2.48024 11.4765 3.61182 10.6653C4.75656 9.84215 6.10524 9.40672 7.49998 9.40672C8.89471 9.40672 10.2434 9.84215 11.3881 10.6653C12.5197 11.4765 13.3816 12.6039 13.8881 13.9281C14.0921 14.4769 14 15.0734 13.6447 15.5267Z" fill="#BDC0C8"/>
</svg>
