<svg width="21" height="19" viewBox="0 0 21 19" fill="none" xmlns="http://www.w3.org/2000/svg">
<path fill-rule="evenodd" clip-rule="evenodd" d="M19.4721 9.00232C19.4719 9.00281 19.4715 9.00355 19.4701 9.00466C19.3036 9.37658 18.3682 9.62544 18.3682 9.62544L14.3835 9.58058L9.98198 15.8641L8.96218 15.7788L11.0005 10.474L10.9024 9.51778L6.20796 9.45754L4.05424 11.6821L3.81096 11.7092L4.54405 8.9433L4.31546 8.75999L4.26058 8.71527L4.32152 8.66831L4.55354 8.49147L3.88537 5.70918L4.12826 5.74153L6.2291 8.01598L10.9239 8.06485L11.0444 7.11087L9.12899 1.7596L10.1504 1.69754L14.4053 8.08213L18.3896 8.12957C18.3896 8.12957 19.7099 8.51483 19.4721 9.00232Z" fill="#BDC0C8"/>
</svg>
