<svg width="29" height="27" viewBox="0 0 29 27" fill="none" xmlns="http://www.w3.org/2000/svg">
<path fill-rule="evenodd" clip-rule="evenodd" d="M26.9618 12.7743C26.9615 12.775 26.961 12.7761 26.9589 12.7777C26.7261 13.3231 25.3713 13.709 25.3713 13.709L19.572 13.7449L13.3269 23L11.8408 22.9017L14.672 15.1309L14.505 13.742L7.6725 13.7736L4.59509 17.0652L4.24178 17.1109L5.23826 13.0676L4.90096 12.8066L4.81998 12.7429L4.90747 12.6731L5.24059 12.4098L4.19765 8.37826L4.5519 8.41915L7.66664 11.6754L14.4994 11.6273L14.6505 10.236L11.7274 2.49797L13.2121 2.38172L19.5657 11.564L25.3645 11.5318C25.3645 11.5318 27.2954 12.0589 26.9618 12.7743Z" fill="#FF5A5F"/>
</svg>
