<svg width="25" height="25" viewBox="0 0 25 25" fill="none" xmlns="http://www.w3.org/2000/svg">
<path fill-rule="evenodd" clip-rule="evenodd" d="M24.4772 9.92597L21.1431 7.52664L20.7323 3.43881C20.6958 3.07462 20.3759 2.80468 20.0097 2.83306L15.9134 3.13847L12.9715 0.2709C12.7093 0.0154944 12.2904 0.0154944 12.0282 0.2709L9.08634 3.13847L4.98972 2.83306C4.62283 2.80468 4.30357 3.07462 4.26709 3.43881L3.85628 7.52664L0.522154 9.92597C0.224857 10.1398 0.152222 10.5523 0.358641 10.855L2.67114 14.25L1.65898 18.2307C1.56878 18.5864 1.7779 18.9486 2.1306 19.0476L6.08499 20.1621L7.86878 23.8618C8.0279 24.1925 8.4208 24.3354 8.75526 24.1844L12.4999 22.4966L16.2448 24.1844C16.335 24.2253 16.4292 24.2445 16.5222 24.2445C16.7738 24.2445 17.0147 24.1033 17.1313 23.8618L18.9151 20.1621L22.8688 19.0476C23.2215 18.9486 23.4306 18.5864 23.3404 18.2307L22.3286 14.25L24.6411 10.855C24.8472 10.552 24.7745 10.1398 24.4772 9.92597ZM21.0401 13.7412C20.9309 13.901 20.8958 14.1 20.9434 14.2881L21.8684 17.926L18.2553 18.9442C18.0688 18.9969 17.914 19.127 17.8299 19.3013L16.1999 22.6824L12.7776 21.1405C12.6894 21.1003 12.5945 21.0804 12.4999 21.0804C12.4053 21.0804 12.3103 21.1003 12.2222 21.1405L8.80019 22.6824L7.17013 19.3013C7.08601 19.127 6.93094 18.9973 6.74479 18.9442L3.13128 17.926L4.05628 14.2881C4.10391 14.1 4.06878 13.901 3.95965 13.7412L1.84614 10.6385L4.8931 8.44522C5.05019 8.33239 5.15121 8.15739 5.17047 7.96482L5.5458 4.22935L9.28972 4.50908C9.48263 4.5236 9.67283 4.45435 9.81168 4.31921L12.4999 1.69894L15.1884 4.31921C15.3269 4.45435 15.5164 4.5236 15.7103 4.50908L19.4539 4.22935L19.8293 7.96482C19.8485 8.15739 19.9495 8.33239 20.1066 8.44522L23.1536 10.6385L21.0401 13.7412Z" fill="#888D99"/>
<path fill-rule="evenodd" clip-rule="evenodd" d="M16.2185 8.44325C15.9547 8.1794 15.5267 8.1794 15.2631 8.44325L8.78138 14.9257C8.51753 15.1895 8.51753 15.6172 8.78138 15.8811C8.91348 16.0132 9.08611 16.0791 9.25909 16.0791C9.43206 16.0791 9.60503 16.0132 9.73679 15.8811L16.2185 9.39866C16.4827 9.1348 16.4827 8.7071 16.2185 8.44325Z" fill="#888D99"/>
<path fill-rule="evenodd" clip-rule="evenodd" d="M11.6772 11.3392C12.56 10.4565 12.56 9.02065 11.6772 8.13754C11.2495 7.70916 10.681 7.47437 10.0762 7.47437C9.4715 7.47437 8.90326 7.70916 8.47555 8.13687C7.59278 9.01964 7.59278 10.4561 8.47555 11.3396C8.90326 11.7666 9.47184 12.0021 10.0766 12.0021C10.6813 12.0021 11.2499 11.7669 11.6772 11.3392ZM9.4313 10.3838C9.07522 10.0281 9.07522 9.44869 9.4313 9.09328C9.60359 8.92031 9.83265 8.82605 10.0766 8.82605C10.3205 8.82605 10.5495 8.92031 10.7222 9.09328C11.0779 9.44903 11.0779 10.0284 10.7222 10.3838C10.3772 10.7284 9.77555 10.7284 9.4313 10.3838Z" fill="#888D99"/>
<path fill-rule="evenodd" clip-rule="evenodd" d="M14.9235 12.3213C14.3188 12.3213 13.7502 12.5568 13.3228 12.9845C12.8951 13.4122 12.6597 13.9807 12.6597 14.5851C12.6597 15.1902 12.8951 15.7591 13.3228 16.1865C13.7505 16.6139 14.3191 16.8497 14.9239 16.8497C15.5286 16.8497 16.0975 16.6142 16.5249 16.1865C17.4076 15.3037 17.4073 13.8672 16.5245 12.9841C16.0968 12.5568 15.5286 12.3213 14.9235 12.3213ZM15.5691 15.2311C15.2245 15.576 14.6232 15.576 14.2782 15.2304C14.1056 15.0581 14.0107 14.8291 14.0107 14.5851C14.0107 14.3416 14.1056 14.1128 14.2782 13.9399C14.4505 13.7676 14.6796 13.6726 14.9232 13.6726C15.1671 13.6726 15.3962 13.7676 15.5688 13.9399C15.9252 14.296 15.9252 14.8747 15.5691 15.2311Z" fill="#888D99"/>
</svg>
