<svg width="41" height="44" viewBox="0 0 41 44" fill="none" xmlns="http://www.w3.org/2000/svg">
<path fill-rule="evenodd" clip-rule="evenodd" d="M40.7834 42.7028L36.1651 37.969C37.5189 36.5124 38.3466 34.5855 38.3466 32.469C38.3466 27.9552 34.6025 24.2759 29.9919 24.2759C25.3814 24.2759 21.6372 27.9476 21.6372 32.469C21.6372 36.9904 25.3814 40.6621 29.9919 40.6621C31.8795 40.6621 33.62 40.04 35.0202 38.9931L39.6617 43.7573C39.8165 43.9166 40.0176 43.9924 40.2187 43.9924C40.4121 43.9924 40.6055 43.9242 40.7525 43.78C41.0697 43.4842 41.0774 43.0062 40.7834 42.7028ZM23.1921 32.469C23.1921 28.7897 26.2478 25.7931 29.9997 25.7931C33.7515 25.7931 36.8072 28.7897 36.8072 32.469C36.8072 36.1483 33.7515 39.1448 29.9997 39.1448C26.2478 39.1448 23.1921 36.1483 23.1921 32.469Z" fill="#FF5A5F"/>
<path fill-rule="evenodd" clip-rule="evenodd" d="M14.9688 9.10339C11.9828 9.10339 9.55371 11.4855 9.55371 14.4137C9.55371 17.342 11.9828 19.7241 14.9688 19.7241C17.9548 19.7241 20.3839 17.342 20.3839 14.4137C20.3839 11.4855 17.9548 9.10339 14.9688 9.10339ZM14.9688 18.2068C12.8337 18.2068 11.1009 16.5075 11.1009 14.4137C11.1009 12.3199 12.8337 10.6206 14.9688 10.6206C17.1039 10.6206 18.8367 12.3199 18.8367 14.4137C18.8367 16.5075 17.1039 18.2068 14.9688 18.2068Z" fill="#FF5A5F"/>
<path fill-rule="evenodd" clip-rule="evenodd" d="M17.1813 35.951L14.8683 38.9172L4.20826 23.8207C0.185615 18.5634 0.765804 9.92276 5.44599 5.3331C7.95241 2.87517 11.2866 1.51724 14.8373 1.51724C18.3881 1.51724 21.7222 2.87517 24.2364 5.3331C28.3983 9.41448 29.3575 17.069 26.3792 22.4097C26.1703 22.7738 26.3096 23.2366 26.6886 23.4414C27.06 23.6462 27.5318 23.5097 27.7407 23.1379C31.0826 17.1524 30.0305 8.86069 25.3349 4.26345C22.5267 1.51724 18.7981 0 14.8373 0C10.8688 0 7.14788 1.51724 4.3475 4.26345C-0.835516 9.34621 -1.48533 18.9124 2.95505 24.7083L14.8064 41.4966L18.4113 36.8766C18.6743 36.5428 18.6047 36.0648 18.2643 35.8145C17.9239 35.5641 17.4366 35.6172 17.1813 35.951Z" fill="#FF5A5F"/>
</svg>
