<svg width="50" height="50" viewBox="0 0 50 50" fill="none" xmlns="http://www.w3.org/2000/svg">
<path fill-rule="evenodd" clip-rule="evenodd" d="M33.8316 0.109525L49.1114 15.3893L15.2798 49.221L0 33.9412L33.8316 0.109525ZM46.7663 15.4529L33.7335 2.42012L26.0694 10.0842L2.2741 33.8795L15.3069 46.9123L38.2992 23.9199L46.7663 15.4529Z" fill="#FF5A5F"/>
<rect x="41.5015" y="15.8086" width="2.47742" height="1.07556" transform="rotate(-45 41.5015 15.8086)" fill="#FF5A5F"/>
<rect x="40.6372" y="14.9443" width="2.47742" height="0.537778" transform="rotate(-45 40.6372 14.9443)" fill="#FF5A5F"/>
<rect x="39.1855" y="13.4924" width="2.47742" height="1.56444" transform="rotate(-45 39.1855 13.4924)" fill="#FF5A5F"/>
<rect x="37.9756" y="12.2825" width="2.47742" height="0.537778" transform="rotate(-45 37.9756 12.2825)" fill="#FF5A5F"/>
<rect x="37.3535" y="11.6603" width="2.47742" height="0.537778" transform="rotate(-45 37.3535 11.6603)" fill="#FF5A5F"/>
<rect x="36.3164" y="10.6232" width="2.47742" height="1.07556" transform="rotate(-45 36.3164 10.6232)" fill="#FF5A5F"/>
<rect x="35.4521" y="9.75891" width="2.47742" height="0.537778" transform="rotate(-45 35.4521 9.75891)" fill="#FF5A5F"/>
<rect x="34" y="8.30701" width="2.47742" height="1.56444" transform="rotate(-45 34 8.30701)" fill="#FF5A5F"/>
<rect x="32.79" y="7.09705" width="2.47742" height="0.537778" transform="rotate(-45 32.79 7.09705)" fill="#FF5A5F"/>
<rect x="32.168" y="6.47485" width="2.47742" height="0.537778" transform="rotate(-45 32.168 6.47485)" fill="#FF5A5F"/>
<rect x="36.123" y="21.6709" width="1.13548" height="2.2" transform="rotate(-45 36.123 21.6709)" fill="#FF5A5F"/>
<rect x="33.5649" y="19.1128" width="1.13548" height="2.2" transform="rotate(-45 33.5649 19.1128)" fill="#FF5A5F"/>
<rect x="31.0415" y="16.5892" width="1.13548" height="2.2" transform="rotate(-45 31.0415 16.5892)" fill="#FF5A5F"/>
<rect x="28.4834" y="14.031" width="1.13548" height="2.2" transform="rotate(-45 28.4834 14.031)" fill="#FF5A5F"/>
<rect x="25.9253" y="11.4729" width="1.13548" height="2.2" transform="rotate(-45 25.9253 11.4729)" fill="#FF5A5F"/>
<path fill-rule="evenodd" clip-rule="evenodd" d="M26.9461 22.2747C27.2227 22.5513 26.6234 23.7037 26.2219 24.1052L23.2657 27.0614L24.0988 34.3176L23.2594 35.1571L20.7821 29.6141L18.3004 32.0959L18.4635 33.9378L17.4781 34.9232L16.7254 32.5646L14.3668 31.8119L15.3522 30.8265L17.1941 30.9896L19.6759 28.5079L14.0984 25.9961L14.9378 25.1567L22.1249 25.9206L25.0811 22.9644C25.448 22.5284 26.6696 21.9982 26.9461 22.2747Z" fill="#FF5A5F"/>
</svg>
