<svg width="14" height="11" viewBox="0 0 14 11" fill="none" xmlns="http://www.w3.org/2000/svg">
<path fill-rule="evenodd" clip-rule="evenodd" d="M13.5341 1.29713C13.0362 1.51719 12.501 1.66594 11.9394 1.73273C12.5126 1.39037 12.9529 0.848268 13.1602 0.202257C12.6237 0.519289 12.0295 0.749496 11.397 0.873533C10.8905 0.335884 10.1688 0 9.37019 0C7.5779 0 6.26036 1.66636 6.66543 3.3967C4.35773 3.28137 2.31171 2.17999 0.942232 0.506395C0.214871 1.74949 0.564952 3.37631 1.80152 4.19971C1.34642 4.18537 0.918153 4.06091 0.543862 3.85365C0.513739 5.13533 1.4356 6.33378 2.77092 6.6011C2.38014 6.70704 1.9521 6.73129 1.51704 6.64846C1.87031 7.74745 2.89581 8.54725 4.11086 8.56954C2.94348 9.48097 1.47318 9.88807 0 9.7151C1.22878 10.5 2.68833 10.958 4.25639 10.958C9.41158 10.958 12.3241 6.61992 12.1486 2.72913C12.6912 2.33911 13.1619 1.85189 13.5341 1.29713Z" fill="#BDC0C8"/>
</svg>
